<?xml version="1.0" encoding="utf-8"?>
<!-- Generator: Adobe Illustrator 15.1.0, SVG Export Plug-In . SVG Version: 6.00 Build 0)  -->
<!DOCTYPE svg PUBLIC "-//W3C//DTD SVG 1.1//EN" "http://www.w3.org/Graphics/SVG/1.1/DTD/svg11.dtd">
<svg version="1.1" id="Layer_1" xmlns="http://www.w3.org/2000/svg" xmlns:xlink="http://www.w3.org/1999/xlink" x="0px" y="0px"
	 width="340.965px" height="91.707px" viewBox="0 0 340.965 91.707" enable-background="new 0 0 340.965 91.707"
	 xml:space="preserve">
<g>
	<g>
		<g>
			<path fill="#FF1257" d="M27.804,38.842c-0.197-0.358-0.386-0.691-0.564-0.986c-2.85-4.737-13.174-14.63-14.511-15.822
				c0,0,6.146,8.813,12.062,17.932L27.804,38.842z"/>
		</g>
		<g>
			<path fill="#FF1257" d="M49.295,30.809c-0.087-0.397-0.166-0.774-0.223-1.115c-0.956-5.443,0.349-19.683,0.582-21.459
				c0,0,1.137,10.683,2.655,21.449L49.295,30.809z"/>
		</g>
		
			<linearGradient id="SVGID_1_" gradientUnits="userSpaceOnUse" x1="2732.8315" y1="845.2168" x2="2812.3745" y2="845.2168" gradientTransform="matrix(0.9367 -0.3501 -0.3501 -0.9367 -2249.4106 1832.6196)">
			<stop  offset="0" style="stop-color:#FF7C7B"/>
			<stop  offset="0.2667" style="stop-color:#FF518D"/>
			<stop  offset="0.7212" style="stop-color:#AB4095"/>
			<stop  offset="1" style="stop-color:#5E309D"/>
		</linearGradient>
		<path fill="url(#SVGID_1_)" d="M84.345,44.423c-0.004-0.009-2.1-4.508-4.622-1.667c-7.9,8.9-23.923,33.357-25.081,35.126
			c-2.034-0.573-30.174-8.526-41.974-10.063c-3.768-0.485-2.396,4.281-2.394,4.291c0.648,3.17,2.563,7.3,4.456,9.92
			c7.876,10.91,26.417,9.82,42.758,3.47c16.498-5.922,31.21-17.265,30-30.66C87.196,51.611,85.938,47.245,84.345,44.423z"/>
		
			<linearGradient id="SVGID_2_" gradientUnits="userSpaceOnUse" x1="2765.0073" y1="823.6826" x2="2779.7795" y2="903.4354" gradientTransform="matrix(0.9367 -0.3501 -0.3501 -0.9367 -2249.4106 1832.6196)">
			<stop  offset="0" style="stop-color:#1C303B"/>
			<stop  offset="1" style="stop-color:#5E309D"/>
		</linearGradient>
		<path fill="url(#SVGID_2_)" d="M83.511,42.949c-1.042-1.469-8.731-9.085-11.179-11.464c-10.092-9.801-7.294-20.848-6.931-23.126
			c0,0-10.473,15.384-28.562,21.891c-17.923,6.956-35.92,2.209-35.92,2.209c1.768,1.482,11.128,7.986,9.936,22.002
			c-0.286,3.4-1.098,14.193-0.917,15.984c0.364,3.652,7.079,10.533,21.1,11.26c7.625,0.395,14.146-0.771,18.449-1.893l10.3,11.859
			l0.015,0.034v-0.021l0.011,0.012L59.8,91.669l0.001-15.713c3.978-1.976,9.667-5.374,15.162-10.67
			C85.078,55.545,85.63,45.944,83.511,42.949z"/>
		<g>
			<path fill="#FF1257" d="M0,22.187c1.081,0.716,9.519,6.744,12.052,9.85c3.199,3.854,10.412,16.572,7.379,12.832
				C14.962,39.354,0,22.187,0,22.187z"/>
		</g>
		<path fill="#FFFFFF" d="M41.759,52.813c-4.795-6.455-13.864-7.795-20.317-3.004c-6.457,4.791-7.798,13.862-3.004,20.313
			c4.788,6.456,13.858,7.799,20.317,3.011C45.205,68.338,46.55,59.27,41.759,52.813z"/>
		<path fill="#373063" d="M41.566,65.133c-1.186-1.595-3.431-1.92-5.029-0.738c-1.591,1.187-1.927,3.431-0.742,5.025
			c1.188,1.598,3.428,1.932,5.026,0.742C42.419,68.979,42.751,66.734,41.566,65.133z"/>
		<g>
			<path fill="#FF1257" d="M59.359,0c-0.348,1.25-2.76,11.334-2.636,15.34c0.112,5.007,3.009,19.34,2.845,14.527
				C59.324,22.772,59.359,0,59.359,0z"/>
		</g>
		<path fill="#FFFFFF" d="M47.926,50.511c-0.615-8.019,5.348-14.981,13.364-15.596c8.016-0.618,14.978,5.351,15.593,13.36
			c0.618,8.019-5.35,14.979-13.363,15.6C55.503,64.489,48.543,58.523,47.926,50.511z"/>
		<path fill="#373063" d="M56.154,59.688c-0.152-1.983,1.324-3.707,3.306-3.86c1.981-0.15,3.707,1.323,3.855,3.304
			c0.155,1.989-1.319,3.706-3.305,3.86C58.028,63.145,56.307,61.67,56.154,59.688z"/>
	</g>
	<path fill="#373063" d="M181.75,71.063c0,1.982-1.604,3.586-3.588,3.586c-1.972,0-3.572-1.598-3.582-3.569c0,0,0-38.815,0-38.818
		c0-1.982,1.604-3.587,3.588-3.587c1.973,0,3.57,1.597,3.582,3.569V71.063z M217.959,58.953c-0.586,0.355-1.209,0.563-1.846,0.623
		l-22.14,0.015c0.14,0.745,0.267,1.472,0.598,2.155c0.533,1.107,1.229,2.07,2.095,2.895c0.857,0.82,1.865,1.467,3.017,1.938
		c1.146,0.473,2.356,0.708,3.631,0.708c2.134,0,3.958-0.522,5.476-1.569c0.465-0.32,0.875-0.685,1.265-1.068
		c0,0,1.771-1.422,2.937-1.422c2.004,0,3.631,1.627,3.631,3.631c0,1.021-0.425,1.939-1.104,2.599v0.022
		c-0.717,0.758-1.479,1.428-2.297,1.992c-1.473,1.03-3.057,1.778-4.738,2.248c-1.684,0.471-3.404,0.708-5.168,0.708
		c-2.341,0-4.523-0.44-6.555-1.323c-2.031-0.881-3.799-2.069-5.309-3.568c-1.508-1.497-2.695-3.264-3.565-5.293
		c-0.876-2.03-1.313-4.217-1.313-6.555c0-2.345,0.438-4.524,1.313-6.558c0.87-2.032,2.059-3.794,3.565-5.293
		c1.51-1.498,3.277-2.687,5.309-3.57c2.029-0.882,4.214-1.323,6.555-1.323c2.584,0,4.9,0.472,6.954,1.416
		c2.054,0.944,3.797,2.206,5.231,3.785c1.437,1.582,2.678,3.404,3.475,5.496C219.264,52.391,221.222,56.958,217.959,58.953z
		 M212.113,53.376c-0.614-1.724-1.702-3.19-3.26-4.401c-1.562-1.209-3.388-1.815-5.481-1.815c-2.088,0-3.914,0.606-5.476,1.815
		c-1.562,1.211-2.647,2.68-3.26,4.401H212.113z M137.109,64.52c0.886,2.035,2.091,3.811,3.618,5.313
		c1.522,1.509,3.308,2.7,5.348,3.588c2.039,0.885,4.231,1.331,6.583,1.331c2.348,0,4.543-0.446,6.582-1.331
		c2.042-0.888,3.812-2.079,5.317-3.588c1.503-1.502,2.699-3.275,3.584-5.313c0.886-2.043,1.33-4.237,1.33-6.584
		c0-2.35-0.444-4.547-1.33-6.586c-0.886-2.039-2.081-3.81-3.584-5.316c-1.505-1.503-3.276-2.699-5.317-3.584
		c-2.039-0.886-4.234-1.328-6.582-1.328c-2.352,0-4.544,0.442-6.583,1.328c-2.04,0.886-3.825,2.081-5.348,3.584
		c-1.527,1.507-2.732,3.277-3.618,5.316c-0.886,2.039-1.328,4.236-1.328,6.586C135.781,60.281,136.223,62.477,137.109,64.52z
		 M143.724,54.191c0.52-1.172,1.211-2.196,2.08-3.062c0.869-0.864,1.891-1.554,3.071-2.067c1.177-0.515,2.427-0.774,3.753-0.774
		c1.321,0,2.572,0.261,3.75,0.774c1.178,0.515,2.201,1.203,3.07,2.067c0.867,0.864,1.561,1.89,2.078,3.062
		c0.516,1.174,0.777,2.42,0.777,3.744c0,1.315-0.261,2.563-0.777,3.737c-0.518,1.175-1.211,2.195-2.078,3.06
		c-0.869,0.865-1.892,1.555-3.07,2.07c-1.177,0.518-2.429,0.771-3.75,0.771c-1.326,0-2.576-0.256-3.753-0.771
		c-1.18-0.517-2.203-1.205-3.071-2.07c-0.868-0.863-1.56-1.885-2.08-3.06c-0.515-1.175-0.773-2.422-0.773-3.737
		C142.951,56.611,143.209,55.365,143.724,54.191z M131.023,57.936c0,2.391-0.434,4.603-1.298,6.645
		c-0.866,2.039-2.062,3.813-3.586,5.316c-1.524,1.502-3.308,2.69-5.346,3.556c-2.041,0.864-4.234,1.299-6.582,1.299
		c-2.352,0-4.544-0.446-6.583-1.331c-2.04-0.888-3.815-2.079-5.319-3.588c-1.505-1.502-2.7-3.275-3.583-5.313
		c-0.888-2.043-1.331-4.237-1.331-6.584c0-2.35,0.443-4.547,1.331-6.586c0.883-2.039,2.078-3.81,3.583-5.316
		c1.504-1.503,3.279-2.699,5.319-3.584c2.039-0.886,4.231-1.328,6.583-1.328c1.769,0,3.551,0.361,5.346,1.082
		c1.791,0.721,3.224,1.576,4.295,2.564c0,0-0.004-12.352-0.004-12.366c0-1.981,1.605-3.586,3.587-3.586
		c1.975,0,3.573,1.595,3.583,3.569L131.023,57.936z M123.853,57.936c0-1.322-0.258-2.569-0.771-3.744
		c-0.519-1.172-1.205-2.195-2.072-3.061c-0.864-0.863-1.884-1.554-3.06-2.068c-1.175-0.514-2.422-0.773-3.738-0.773
		c-1.32,0-2.565,0.261-3.743,0.773c-1.173,0.516-2.194,1.205-3.06,2.068c-0.864,0.864-1.555,1.889-2.069,3.061
		c-0.518,1.175-0.771,2.422-0.771,3.744c0,1.316,0.254,2.563,0.771,3.738c0.515,1.174,1.205,2.195,2.069,3.061
		c0.866,0.863,1.886,1.554,3.06,2.07c1.177,0.516,2.423,0.771,3.743,0.771c1.316,0,2.563-0.255,3.738-0.771
		c1.176-0.518,2.195-1.207,3.06-2.07c0.867-0.864,1.553-1.887,2.072-3.061C123.594,60.499,123.853,59.252,123.853,57.936z
		 M254.745,58.953c-0.582,0.355-1.205,0.563-1.845,0.623l-22.14,0.015c0.14,0.745,0.271,1.472,0.601,2.155
		c0.531,1.107,1.231,2.07,2.091,2.895c0.864,0.82,1.868,1.467,3.018,1.938c1.148,0.473,2.359,0.708,3.631,0.708
		c2.135,0,3.962-0.522,5.48-1.569c0.461-0.32,0.877-0.685,1.26-1.068c0,0,1.769-1.422,2.939-1.422c2.002,0,3.625,1.627,3.625,3.631
		c0,1.021-0.423,1.939-1.099,2.599v0.022c-0.718,0.758-1.479,1.428-2.294,1.992c-1.479,1.03-3.059,1.778-4.742,2.248
		c-1.682,0.471-3.404,0.708-5.171,0.708c-2.339,0-4.524-0.44-6.556-1.323c-2.028-0.881-3.799-2.069-5.303-3.568
		c-1.507-1.497-2.695-3.264-3.57-5.293c-0.877-2.03-1.312-4.217-1.312-6.555c0-2.345,0.435-4.524,1.312-6.558
		c0.875-2.032,2.063-3.794,3.57-5.293c1.504-1.498,3.273-2.687,5.303-3.57c2.031-0.882,4.217-1.323,6.556-1.323
		c2.587,0,4.903,0.472,6.955,1.416c2.053,0.944,3.799,2.206,5.231,3.785c1.438,1.582,2.676,3.404,3.479,5.496
		C256.053,52.391,258.01,56.958,254.745,58.953z M248.904,53.376c-0.616-1.724-1.704-3.19-3.266-4.401
		c-1.558-1.209-3.388-1.815-5.476-1.815c-2.095,0-3.922,0.606-5.477,1.815c-1.563,1.211-2.65,2.68-3.266,4.401H248.904z
		 M300.901,64.52c0.885,2.035,2.092,3.811,3.616,5.313c1.524,1.509,3.308,2.7,5.349,3.588c2.038,0.885,4.233,1.331,6.584,1.331
		c2.348,0,4.541-0.446,6.582-1.331c2.043-0.888,3.811-2.079,5.313-3.588c1.508-1.502,2.702-3.275,3.59-5.313
		c0.882-2.043,1.325-4.237,1.325-6.584c0-2.35-0.443-4.547-1.325-6.586c-0.888-2.039-2.082-3.81-3.59-5.316
		c-1.503-1.503-3.271-2.699-5.313-3.584c-2.041-0.885-4.234-1.328-6.582-1.328c-2.351,0-4.546,0.442-6.584,1.328
		c-2.041,0.886-3.822,2.081-5.349,3.584c-1.524,1.507-2.731,3.277-3.616,5.316c-0.888,2.039-1.331,4.236-1.331,6.586
		C299.57,60.281,300.013,62.477,300.901,64.52z M307.516,54.191c0.521-1.172,1.209-2.196,2.079-3.062
		c0.866-0.864,1.889-1.554,3.067-2.067c1.182-0.515,2.432-0.774,3.754-0.774c1.321,0,2.571,0.261,3.752,0.774
		c1.182,0.515,2.201,1.203,3.068,2.067s1.561,1.89,2.076,3.062c0.52,1.174,0.777,2.42,0.777,3.744c0,1.315-0.258,2.563-0.777,3.737
		c-0.516,1.175-1.209,2.195-2.076,3.06c-0.867,0.865-1.888,1.555-3.068,2.07c-1.18,0.516-2.431,0.771-3.752,0.771
		c-1.322,0-2.572-0.256-3.754-0.771c-1.18-0.517-2.201-1.205-3.067-2.07c-0.87-0.863-1.558-1.885-2.079-3.06
		c-0.518-1.175-0.773-2.422-0.773-3.737C306.743,56.611,307,55.365,307.516,54.191z M294.831,57.721
		c0,2.391-0.432,4.605-1.299,6.646c-0.863,2.039-2.06,3.813-3.585,5.316c-1.524,1.504-3.306,2.688-5.348,3.556
		c-2.036,0.864-4.233,1.296-6.58,1.296c-2.353,0-4.545-0.439-6.587-1.328c-2.038-0.889-3.811-2.082-5.313-3.584
		c-1.51-1.509-2.703-3.277-3.588-5.316c-0.889-2.041-1.328-4.233-1.328-6.586c0-2.347,0.439-4.541,1.328-6.584
		c0.885-2.037,2.078-3.809,3.588-5.313c1.502-1.505,3.273-2.7,5.313-3.586c2.042-0.884,4.234-1.328,6.587-1.328
		c1.771,0,3.554,0.361,5.345,1.082c1.793,0.722,3.225,1.576,4.299,2.565c0,0-0.006-12.353-0.006-12.366
		c0-1.982,1.605-3.586,3.588-3.586c1.975,0,3.574,1.596,3.58,3.568L294.831,57.721z M287.663,57.721c0-1.316-0.262-2.563-0.771-3.74
		c-0.52-1.172-1.206-2.192-2.07-3.058c-0.869-0.866-1.889-1.557-3.063-2.071c-1.176-0.513-2.422-0.771-3.738-0.771
		c-1.32,0-2.566,0.26-3.744,0.771c-1.172,0.516-2.193,1.205-3.057,2.071c-0.867,0.864-1.555,1.886-2.071,3.058
		c-0.517,1.177-0.771,2.424-0.771,3.74c0,1.322,0.254,2.569,0.771,3.744c0.517,1.171,1.204,2.189,2.071,3.057
		c0.863,0.867,1.885,1.559,3.057,2.074c1.178,0.516,2.424,0.771,3.744,0.771c1.316,0,2.563-0.255,3.738-0.771
		c1.174-0.517,2.191-1.207,3.063-2.074c0.864-0.867,1.551-1.886,2.07-3.057C287.401,60.29,287.663,59.043,287.663,57.721z
		 M339.111,43.932c0.371-0.162,0.698-0.383,0.972-0.664c0.274-0.281,0.496-0.607,0.651-0.978c0.157-0.371,0.231-0.766,0.231-1.179
		v-0.018c0-0.416-0.074-0.808-0.231-1.174c-0.155-0.37-0.374-0.692-0.649-0.969c-0.27-0.278-0.59-0.499-0.963-0.663
		c-0.371-0.163-0.769-0.244-1.193-0.244c-0.43,0-0.827,0.081-1.201,0.244c-0.374,0.164-0.695,0.384-0.975,0.667
		c-0.272,0.28-0.489,0.606-0.646,0.976c-0.158,0.37-0.234,0.765-0.234,1.181v0.016c0,0.417,0.076,0.808,0.234,1.176
		c0.157,0.367,0.374,0.69,0.645,0.969c0.272,0.277,0.595,0.498,0.965,0.66c0.369,0.164,0.767,0.245,1.195,0.245
		C338.334,44.177,338.736,44.096,339.111,43.932z M336.842,43.626c-0.325-0.143-0.612-0.338-0.854-0.582
		c-0.244-0.245-0.432-0.532-0.564-0.864c-0.137-0.331-0.2-0.683-0.2-1.053v-0.016c0-0.371,0.065-0.721,0.202-1.054
		c0.14-0.331,0.328-0.622,0.568-0.872c0.243-0.251,0.527-0.447,0.858-0.59c0.327-0.144,0.685-0.214,1.073-0.214
		c0.383,0,0.736,0.071,1.066,0.214c0.327,0.144,0.608,0.336,0.848,0.582c0.24,0.245,0.429,0.532,0.568,0.864
		c0.137,0.331,0.202,0.682,0.202,1.053v0.018c0,0.37-0.065,0.721-0.202,1.051c-0.141,0.333-0.332,0.622-0.572,0.873
		c-0.24,0.25-0.524,0.448-0.854,0.59c-0.325,0.144-0.688,0.214-1.073,0.214C337.527,43.84,337.172,43.77,336.842,43.626z
		 M336.583,42.644h0.897v-0.986h0.377h0.019l0.658,0.986h1.035l-0.773-1.129c0.203-0.084,0.361-0.208,0.484-0.372
		c0.12-0.161,0.18-0.37,0.18-0.622v-0.017c0-0.309-0.09-0.557-0.278-0.741c-0.11-0.112-0.257-0.202-0.437-0.266
		c-0.18-0.065-0.399-0.097-0.658-0.097h-1.504V42.644L336.583,42.644z M337.48,40.959v-0.785h0.58c0.151,0,0.272,0.034,0.362,0.099
		c0.091,0.064,0.137,0.161,0.137,0.29v0.018c0,0.118-0.043,0.209-0.128,0.277c-0.081,0.068-0.205,0.102-0.362,0.102L337.48,40.959
		L337.48,40.959z"/>
</g>
</svg>
