<svg version="1.0" id="Layer_1"
   xmlns="http://www.w3.org/2000/svg" xmlns:xlink="http://www.w3.org/1999/xlink" x="0px" y="0px" width="125.689px"
   height="131.643px" viewBox="0 0 125.689 131.643" enable-background="new 0 0 125.689 131.643" xml:space="preserve">
<metadata>
  <sfw>
    <slices></slices>
    <sliceSourceBounds  height="131.643" width="125.689" x="843.965" y="-605.668" bottomLeftOrigin="true"></sliceSourceBounds>
  </sfw>
</metadata>
<g>
  <g>
    <g>
      <path fill="#FF1257" d="M39.91,55.756c-0.283-0.513-0.553-0.991-0.807-1.413C35.011,47.541,20.19,33.342,18.269,31.63
        c0,0,8.824,12.654,17.315,25.74L39.91,55.756z"/>
    </g>
    <g>
      <path fill="#FF1257" d="M70.761,44.227c-0.126-0.573-0.238-1.116-0.322-1.601c-1.372-7.817,0.502-28.255,0.833-30.804
        c0,0,1.637,15.332,3.813,30.787L70.761,44.227z"/>
    </g>
    
      <linearGradient id="SVGID_1_" gradientUnits="userSpaceOnUse" x1="2538.3481" y1="-1013.7568" x2="2652.5269" y2="-1013.7568" gradientTransform="matrix(0.9367 -0.3501 0.3501 0.9367 -2001.9082 1959.042)">
      <stop  offset="0" style="stop-color:#FF7C7B"/>
      <stop  offset="0.2667" style="stop-color:#FF518D"/>
      <stop  offset="0.7212" style="stop-color:#AB4095"/>
      <stop  offset="1" style="stop-color:#5E309D"/>
    </linearGradient>
    <path fill="url(#SVGID_1_)" d="M121.075,63.769c-0.005-0.014-3.014-6.473-6.636-2.394c-11.34,12.776-34.34,47.885-36.001,50.426
      c-2.921-0.829-43.313-12.246-60.251-14.451c-5.409-0.701-3.442,6.146-3.438,6.159c0.931,4.554,3.68,10.48,6.398,14.242
      c11.306,15.658,37.92,14.098,61.378,4.982c23.681-8.509,44.8-24.787,43.065-44.015C125.166,74.094,123.358,67.816,121.075,63.769z
      "/>
    
      <linearGradient id="SVGID_2_" gradientUnits="userSpaceOnUse" x1="2584.5337" y1="-982.8438" x2="2605.7395" y2="-1097.33" gradientTransform="matrix(0.9367 -0.3501 0.3501 0.9367 -2001.9082 1959.042)">
      <stop  offset="0" style="stop-color:#1C303B"/>
      <stop  offset="1" style="stop-color:#5E309D"/>
    </linearGradient>
    <path fill="url(#SVGID_2_)" d="M119.875,61.651c-1.495-2.107-12.53-13.039-16.046-16.454
      c-14.487-14.074-10.467-29.927-9.948-33.201c0,0-15.031,22.087-41.001,31.424c-25.729,9.985-51.559,3.172-51.559,3.172
      c2.537,2.127,15.972,11.465,14.261,31.583c-0.411,4.885-1.574,20.374-1.318,22.949c0.524,5.242,10.165,15.122,30.291,16.161
      c10.944,0.563,20.304-1.113,26.481-2.718l14.787,17.023l0.022,0.051v-0.03l0.013,0.021l-0.017-0.044l0.003-22.556
      c5.71-2.835,13.876-7.712,21.764-15.317C122.123,79.733,122.917,65.953,119.875,61.651z"/>
    <g>
      <path fill="#FF1257" d="M0,31.849c1.549,1.025,13.661,9.682,17.299,14.138c4.593,5.535,14.944,23.793,10.592,18.419
        C21.476,56.49,0,31.849,0,31.849z"/>
    </g>
    <path fill="#FFFFFF" d="M59.944,75.816c-6.885-9.271-19.9-11.195-29.166-4.318c-9.269,6.877-11.193,19.898-4.313,29.158
      c6.875,9.268,19.894,11.192,29.166,4.322C64.891,98.099,66.821,85.08,59.944,75.816z"/>
    <path fill="#373063" d="M59.666,93.5c-1.702-2.292-4.925-2.764-7.217-1.065c-2.286,1.703-2.77,4.926-1.065,7.211
      c1.704,2.299,4.92,2.774,7.212,1.072C60.889,99.019,61.366,95.799,59.666,93.5z"/>
    <g>
      <path fill="#FF1257" d="M85.204,0c-0.497,1.793-3.961,16.268-3.784,22.022c0.165,7.184,4.321,27.76,4.083,20.853
        C85.157,32.688,85.204,0,85.204,0z"/>
    </g>
    <path fill="#FFFFFF" d="M68.794,72.506c-0.88-11.512,7.677-21.503,19.186-22.387c11.505-0.89,21.5,7.679,22.38,19.178
      c0.888,11.508-7.676,21.507-19.181,22.39C79.672,92.57,69.677,84.011,68.794,72.506z"/>
    <path fill="#373063" d="M80.604,85.676c-0.217-2.845,1.901-5.315,4.746-5.538c2.845-0.216,5.319,1.897,5.537,4.743
      c0.221,2.852-1.895,5.319-4.745,5.538C83.294,90.642,80.824,88.524,80.604,85.676z"/>
  </g>
</g>
</svg>